HIERARCHY
ROOT Hips
{
	OFFSET	0.00	0.00	0.00
	CHANNELS 6 Xposition Yposition Zposition Zrotation Xrotation Yrotation
	JOINT LeftUpLeg
	{
		OFFSET	 0.126116	-0.014019	-0.065224
		CHANNELS 3 Zrotation Xrotation Yrotation
		JOINT LeftLeg
		{
			OFFSET	 0.000000	 0.000000	 0.569914
			CHANNELS 3 Zrotation Xrotation Yrotation
			JOINT LeftFoot
			{
				OFFSET	 0.000000	 0.000000	 0.544423
				CHANNELS 3 Zrotation Xrotation Yrotation
				JOINT LeftToeBase
				{
					OFFSET	 0.000000	 0.000000	 0.207117
					CHANNELS 3 Zrotation Xrotation Yrotation
					End Site
					{
						OFFSET	 0.000000	 0.000000	 0.207117
					}
				}
			}
		}
	}
	JOINT RightUpLeg
	{
		OFFSET	-0.124023	-0.008373	-0.065224
		CHANNELS 3 Zrotation Xrotation Yrotation
		JOINT RightLeg
		{
			OFFSET	 0.000000	 0.000000	 0.570047
			CHANNELS 3 Zrotation Xrotation Yrotation
			JOINT RightFoot
			{
				OFFSET	 0.000000	 0.000000	 0.544354
				CHANNELS 3 Zrotation Xrotation Yrotation
				JOINT RightToeBase
				{
					OFFSET	 0.000000	 0.000000	 0.207540
					CHANNELS 3 Zrotation Xrotation Yrotation
					End Site
					{
						OFFSET	 0.000000	 0.000000	 0.207540
					}
				}
			}
		}
	}
	JOINT Spine
	{
		OFFSET	 0.000184	-0.007763	 0.117403
		CHANNELS 3 Zrotation Xrotation Yrotation
		JOINT Spine1
		{
			OFFSET	 0.000000	 0.000000	 0.137269
			CHANNELS 3 Zrotation Xrotation Yrotation
			JOINT Spine2
			{
				OFFSET	 0.000000	 0.000000	 0.156879
				CHANNELS 3 Zrotation Xrotation Yrotation
				JOINT LeftShoulder
				{
					OFFSET	 0.080501	-0.002496	 0.160144
					CHANNELS 3 Zrotation Xrotation Yrotation
					JOINT LeftArm
					{
						OFFSET	 0.000000	 0.000000	 0.164363
						CHANNELS 3 Zrotation Xrotation Yrotation
						JOINT LeftForeArm
						{
							OFFSET	 0.000000	 0.000000	 0.364576
							CHANNELS 3 Zrotation Xrotation Yrotation
							JOINT LeftHand
							{
								OFFSET	 0.000000	 0.000000	 0.360812
								CHANNELS 3 Zrotation Xrotation Yrotation
								JOINT LeftHandIndex1
								{
									OFFSET	 0.000000	 0.000000	 0.086006
									CHANNELS 3 Zrotation Xrotation Yrotation
									JOINT LeftHandIndex2
									{
										OFFSET	 0.000000	 0.000000	 0.047237
										CHANNELS 3 Zrotation Xrotation Yrotation
										JOINT LeftHandIndex3
										{
											OFFSET	-0.004284	-0.000551	 0.038165
											CHANNELS 3 Zrotation Xrotation Yrotation
											End Site
											{
												OFFSET	-0.004284	-0.000551	 0.038165
											}
										}
									}
								}
							}
						}
					}
				}
				JOINT Neck
				{
					OFFSET	 0.000000	 0.000000	 0.176489
					CHANNELS 3 Zrotation Xrotation Yrotation
					JOINT Head
					{
						OFFSET	 0.000000	-0.001747	 0.077940
						CHANNELS 3 Zrotation Xrotation Yrotation
						End Site
						{
							OFFSET	 0.000000	-0.001747	 0.077940
						}
					}
				}
				JOINT RightShoulder
				{
					OFFSET	-0.080363	 0.000306	 0.159706
					CHANNELS 3 Zrotation Xrotation Yrotation
					JOINT RightArm
					{
						OFFSET	 0.000000	 0.000000	 0.164196
						CHANNELS 3 Zrotation Xrotation Yrotation
						JOINT RightForeArm
						{
							OFFSET	 0.000000	 0.000000	 0.365611
							CHANNELS 3 Zrotation Xrotation Yrotation
							JOINT RightHand
							{
								OFFSET	 0.000000	 0.000000	 0.360648
								CHANNELS 3 Zrotation Xrotation Yrotation
								JOINT RightHandIndex1
								{
									OFFSET	 0.000000	 0.000000	 0.069977
									CHANNELS 3 Zrotation Xrotation Yrotation
									JOINT RightHandIndex2
									{
										OFFSET	 0.000000	 0.000000	 0.052305
										CHANNELS 3 Zrotation Xrotation Yrotation
										JOINT RightHandIndex3
										{
											OFFSET	 0.009002	-0.000782	 0.042196
											CHANNELS 3 Zrotation Xrotation Yrotation
											End Site
											{
												OFFSET	 0.009002	-0.000782	 0.042196
											}
										}
									}
								}
							}
						}
					}
				}
			}
		}
	}
}
MOTION
Frames:    9
Frame Time: 0.03333334
-0.713670	-1.661298	 1.273171	-177.492500	 3.918424	-2.218231	-34.131910	-3.179260	-176.119600	-0.088424	-0.514227	 0.016736	-13.865270	 52.635390	 1.164031	-2.385833	 28.452760	 0.000004	 24.025320	-8.743436	 178.089300	-6.098267	-17.405530	 1.439536	 2.045192	 75.032260	 9.052819	 2.384659	 28.388700	-0.000001	-18.114690	 6.170983	 4.892273	-9.443172	-5.652274	-7.277872	 25.009080	-9.905894	 5.115634	-91.776160	 78.527450	 180.000000	-28.446450	-3.651685	-2.117564	-5.570339	-3.967232	-22.512070	 9.095854	-7.595130	-4.878725	-4.131196	 21.524690	 0.986298	-5.167839	 0.733520	 3.519257	-1.378229	 35.397820	-2.634230	 1.489310	 5.011277	-0.163767	-9.473130	-5.383887	-2.700405	 89.782060	 78.203890	-180.000000	-20.809410	-7.426984	-8.270234	-3.110328	-7.841214	 25.537160	-10.778640	 26.170630	 106.034300	 5.715225	 19.176060	-3.692089	 5.027514	 0.245388	-9.378011	-2.350882	 35.473990	 5.254307
-0.712756	-1.659721	 1.272993	-176.849700	 4.631758	-3.009402	-33.282360	-3.960215	-175.877500	-0.771984	-0.511071	 0.010524	-13.304810	 49.584910	 1.872312	-2.385833	 28.452760	 0.000004	 24.725350	-10.196520	 179.094500	-4.579081	-19.537880	 2.121650	-10.569350	 78.967580	 20.912380	 2.384659	 28.388700	-0.000001	-19.044400	 7.062518	 6.433249	-10.075690	-8.762339	-9.969912	 24.828140	-7.917830	 5.620300	-91.776180	 78.527420	-180.000000	-32.535600	-0.745893	 2.929385	-6.614392	-5.514214	-32.951510	 8.503048	-8.188528	-4.578851	-4.131196	 21.524690	 0.986298	-5.167839	 0.733520	 3.519257	-1.378229	 35.397820	-2.634230	 1.652486	 6.857267	 0.094874	-9.058868	-8.175605	-3.185241	 89.782130	 78.203870	 180.000000	-25.674150	-6.412575	-11.411780	-3.992342	-10.650480	 31.444890	-10.778270	 27.635560	 112.667100	 5.715225	 19.176060	-3.692089	 5.027514	 0.245388	-9.378011	-2.350882	 35.473990	 5.254307
-0.712555	-1.659464	 1.272944	-176.792900	 4.672433	-3.118614	-33.191020	-4.008134	-175.810200	-0.782777	-0.513431	 0.010483	-13.290860	 49.320660	 1.920174	-2.385833	 28.452760	 0.000004	 24.949940	-10.341870	 179.217100	-4.587172	-19.834120	 2.149735	-11.938860	 79.521640	 22.332430	 2.384659	 28.388700	-0.000001	-19.156500	 7.103357	 6.549499	-10.159980	-8.948155	-10.028990	 24.813120	-7.814570	 5.550122	-91.776230	 78.527420	-179.999900	-32.727170	-0.385051	 3.728410	-6.813096	-5.694502	-34.439180	 8.393760	-8.254492	-4.549739	-4.131196	 21.524690	 0.986298	-5.167839	 0.733520	 3.519257	-1.378229	 35.397820	-2.634230	 1.645950	 6.973579	 0.146505	-9.024422	-8.312123	-3.201460	 89.782200	 78.203930	 179.999900	-26.062540	-6.262953	-11.792650	-3.905269	-10.968820	 32.334360	-10.710430	 27.885270	 112.936700	 5.715225	 19.176060	-3.692089	 5.027514	 0.245388	-9.378011	-2.350882	 35.473990	 5.254307
-0.710793	-1.657160	 1.272486	-176.382700	 4.969363	-3.905061	-32.522020	-4.246104	-175.328400	-0.859430	-0.513826	 0.009798	-13.197600	 47.491400	 2.291641	-2.385833	 28.452760	 0.000004	 26.548480	-11.431170	-179.838000	-4.638430	-22.039460	 2.357813	-28.181540	 83.165710	 38.916900	 2.384659	 28.388700	-0.000001	-20.058320	 7.366755	 7.428726	-10.874040	-10.046180	-10.644030	 24.738390	-7.144130	 5.198662	-91.776180	 78.527400	-180.000000	-33.899910	 2.486104	 10.051900	-8.420083	-6.880958	-45.883470	 7.614445	-8.757685	-4.333367	-4.131196	 21.524690	 0.986298	-5.167839	 0.733520	 3.519257	-1.378229	 35.397820	-2.634230	 1.595798	 7.811429	 0.519235	-8.777899	-9.296612	-3.312070	 89.782070	 78.203870	-180.000000	-28.889340	-4.935634	-14.592720	-2.915666	-13.474340	 39.583900	-9.892888	 29.624820	 114.141700	 5.715225	 19.176060	-3.692089	 5.027514	 0.245388	-9.378011	-2.350882	 35.473990	 5.254307
-0.708123	-1.653625	 1.271686	-176.140800	 4.965646	-4.422954	-32.046410	-6.313545	-175.009000	-0.391908	-5.644616	 0.153494	-14.620190	 48.897560	 3.854345	-2.385833	 28.452760	 0.000004	 28.216840	-12.360300	-179.093200	-5.192153	-24.154460	 2.342227	-51.013240	 85.898640	 62.266130	 2.384659	 28.388700	-0.000001	-21.053590	 7.365103	 8.034810	-11.683750	-9.255600	-11.016580	 24.832690	-7.442997	 5.207824	-91.776150	 78.527430	 180.000000	-32.439710	 5.922383	 18.187230	-10.452950	-7.899544	-59.692790	 7.100512	-9.103536	-4.169743	-4.131196	 21.524690	 0.986298	-5.167839	 0.733520	 3.519257	-1.378229	 35.397820	-2.634230	 1.508563	 8.076520	 0.864305	-8.636717	-9.411740	-3.276137	 89.782110	 78.203920	 180.000000	-29.440450	-2.651405	-17.016740	-0.636347	-16.004200	 49.042900	-8.296419	 30.496850	 109.324700	 5.715225	 19.176060	-3.692089	 5.027514	 0.245388	-9.378011	-2.350882	 35.473990	 5.254307
-0.704114	-1.648184	 1.270422	-176.002000	 4.702720	-4.816810	-31.808300	-8.737306	-174.719200	 0.588942	-12.937690	 0.569284	-17.265460	 51.954680	 6.275652	-2.385833	 28.452760	 0.000004	 30.100320	-13.351120	-178.329700	-6.155474	-26.600130	 2.128441	-107.134900	 87.567880	 119.078300	 2.384659	 28.388700	-0.000001	-22.393990	 7.199123	 8.564769	-12.751790	-6.625402	-11.257210	 25.093330	-8.703777	 5.593020	-91.776170	 78.527400	 180.000000	-27.964700	 11.098430	 28.150850	-12.970160	-8.473333	-76.185290	 6.730093	-9.339151	-4.035265	-4.131196	 21.524690	 0.986298	-5.167839	 0.733520	 3.519257	-1.378229	 35.397820	-2.634230	 1.394198	 7.964354	 1.209174	-8.558714	-8.938806	-3.144312	 89.782130	 78.203890	 180.000000	-27.995530	 1.411953	-18.570050	 2.930213	-18.223690	 60.860420	-7.458109	 30.483550	 99.798270	 5.715225	 19.176060	-3.692089	 5.027514	 0.245388	-9.378011	-2.350882	 35.473990	 5.254307
-0.697979	-1.638919	 1.268488	-175.873600	 4.206223	-5.165473	-32.313030	-9.955010	-174.387800	 2.046910	-19.752920	 1.353491	-21.085110	 54.871820	 9.683665	-2.385833	 28.452760	 0.000004	 31.190510	-14.785610	-177.207200	-6.647269	-29.789290	 2.115901	-162.755100	 87.667200	 174.905900	 2.384659	 28.388700	-0.000001	-24.587310	 7.006345	 9.422155	-14.392740	-1.302628	-12.292860	 25.703630	-11.298930	 7.360665	-91.776210	 78.527380	 180.000000	-18.425960	 21.374580	 38.360210	-15.863660	-8.085244	-95.806940	 6.238779	-9.632171	-3.869232	-4.131196	 21.524690	 0.986298	-5.167839	 0.733520	 3.519257	-1.378229	 35.397820	-2.634230	 1.466261	 8.027463	 1.296347	-8.427382	-9.058887	-3.146517	 89.782100	 78.203900	 180.000000	-25.540620	 10.021420	-17.978850	 7.640569	-20.008420	 75.169820	-11.182620	 30.037590	 88.375220	 5.715225	 19.176060	-3.692089	 5.027514	 0.245388	-9.378011	-2.350882	 35.473990	 5.254307
-0.693816	-1.632232	 1.267251	-175.815400	 3.883725	-5.305214	-32.873750	-10.058900	-174.208500	 2.998454	-23.103010	 1.948525	-23.625150	 56.474380	 11.912030	-2.385833	 28.452760	 0.000004	 31.576080	-15.692970	-176.416500	-6.750151	-31.600570	 2.177429	 167.933100	 87.523300	-155.893900	 2.384659	 28.388700	-0.000001	-26.143580	 6.861444	 9.889008	-15.527500	 2.673055	-12.782040	 26.243000	-13.317800	 8.661325	-91.776210	 78.527420	-180.000000	-8.848630	 29.736630	 39.208950	-17.014420	-7.513730	-104.745400	 5.951289	-9.798567	-3.773027	-4.131196	 21.524690	 0.986298	-5.167839	 0.733520	 3.519257	-1.378229	 35.397820	-2.634230	 1.557242	 8.110855	 1.265995	-8.344914	-9.292894	-3.185350	 89.782160	 78.203900	 179.999900	-23.747720	 17.627810	-16.065240	 9.898885	-20.473130	 81.713580	-17.515140	 29.942480	 83.336950	 5.715225	 19.176060	-3.692089	 5.027514	 0.245388	-9.378011	-2.350882	 35.473990	 5.254307
-0.686491	-1.619782	 1.265413	-175.810600	 3.614171	-5.304336	-34.126200	-9.605422	-174.148400	 4.180480	-27.589500	 2.848772	-27.086370	 58.500220	 15.183910	-2.385833	 28.452760	 0.000004	 32.208150	-17.359700	-174.933800	-6.538664	-34.065440	 2.446369	 77.423650	 86.533270	-66.200040	 2.384659	 28.388700	-0.000001	-28.856620	 6.606061	 9.832258	-17.705970	 9.176774	-12.298400	 27.204060	-16.906250	 10.260460	-91.776210	 78.527420	-180.000000	 14.069620	 42.234380	 23.182040	-17.644290	-6.963832	-110.550300	 5.697796	-9.936964	-3.692663	-4.131196	 21.524690	 0.986298	-5.167839	 0.733520	 3.519257	-1.378229	 35.397820	-2.634230	 1.686724	 8.202041	 1.121936	-8.275392	-9.506928	-3.136662	 89.782120	 78.203890	 180.000000	-21.302310	 33.699830	-11.269890	 11.587780	-20.917860	 86.577190	-34.477000	 28.766200	 80.307510	 5.715225	 19.176060	-3.692089	 5.027514	 0.245388	-9.378011	-2.350882	 35.473990	 5.254307
